# AST/ASF file generated using VICON BodyLanguage
# -----------------------------------------------
:version 1.10
:name VICON
:units
  mass 1.0
  length 0.45
  angle deg
:documentation
   .ast/.asf automatically generated from VICON data using
   VICON BodyBuilder and BodyLanguage model FoxedUp or BRILLIANT.MOD
:root
   order TX TY TZ RX RY RZ
   axis XYZ
   position 0 0 0  
   orientation 0 0 0 
:bonedata
  begin
     id 1 
     name lhipjoint
     direction 0.693937 -0.600361 0.397515 
     length 2.37164 
     axis 0 0 0  XYZ
  end
  begin
     id 2 
     name lfemur
     direction 0.34202 -0.939693 0  
     length 6.18497  
     axis 0 0 20  XYZ
    dof rx ry rz
    limits (-160.0 20.0)
           (-70.0 70.0)
           (-60.0 70.0)
  end
  begin
     id 3 
     name ltibia
     direction 0.34202 -0.939693 0   
     length 6.91601   
     axis 0 0 20   XYZ
    dof rx
    limits (-10.0 170.0)
  end
  begin
     id 4 
     name lfoot
     direction 0.0978718 -0.2689 0.958182   
     length 1.81453   
     axis -90 7.62852e-016 20   XYZ
    dof rx rz
    limits (-45.0 90.0)
           (-70.0 20.0)
  end
  begin
     id 5 
     name ltoes
     direction 1.53569e-011 -4.21951e-011 1   
     length 0.912052   
     axis -90 7.62852e-016 20   XYZ
    dof rx
    limits (-90.0 20.0)
  end
  begin
     id 6 
     name rhipjoint
     direction -0.643996 -0.637876 0.422354   
     length 2.23216  
     axis 0 0 0  XYZ 
  end
  begin
     id 7 
     name rfemur
     direction -0.34202 -0.939693 0   
     length 6.15404   
     axis 0 0 -20   XYZ
    dof rx ry rz
    limits (-160.0 20.0)
           (-70.0 70.0)
           (-70.0 60.0)
  end
  begin
     id 8 
     name rtibia
     direction -0.34202 -0.939693 0   
     length 6.86744   
     axis 0 0 -20   XYZ
    dof rx
    limits (-10.0 170.0)
 end
 begin
     id 9 
     name rfoot
     direction -0.118701 -0.326127 0.937844   
     length 1.9243  
     axis -90 -7.62852e-016 -20   XYZ
    dof rx rz
    limits (-45.0 90.0)
           (-20.0 70.0)
  end
  begin
     id 10 
     name rtoes
     direction -1.5356e-011 -4.2181e-011 1   
     length 0.958865   
     axis -90 -7.62852e-016 -20   XYZ
    dof rx
    limits (-90.0 20.0)
  end
  begin
     id 11 
     name lowerback
     direction 0.0310826 0.968686 -0.246334   
     length 2.00021   
     axis 0 0 0   XYZ
    dof rx ry rz
    limits (-20.0 45.0)
           (-30.0 30.0)
           (-30.0 30.0)
  end
  begin
     id 12 
     name upperback
     direction -0.0152834 0.999474 -0.0286152   
     length 2.03728   
     axis 0 0 0   XYZ
    dof rx ry rz
    limits (-20.0 45.0)
           (-30.0 30.0)
           (-30.0 30.0)
  end
  begin
     id 13 
     name thorax
     direction -0.0323701 0.996236 0.0804149   
     length 2.16   
     axis 0 0 0   XYZ
    dof rx ry rz
    limits (-20.0 45.0)
           (-30.0 30.0)
           (-30.0 30.0)
  end
  begin
     id 14 
     name lowerneck
     direction 0.0307935 0.982251 0.185027   
     length 1.43558   
     axis 0 0 0   XYZ
    dof rx ry rz
    limits (-20.0 45.0)
           (-30.0 30.0)
           (-30.0 30.0)
  end
  begin
     id 15 
     name upperneck
     direction -0.0927153 0.994775 0.0427454   
     length 1.44603   
     axis 0 0 0   XYZ
    dof rx ry rz
    limits (-20.0 45.0)
           (-30.0 30.0)
           (-30.0 30.0)
  end
  begin
     id 16
     name head
     direction -0.0341265 0.999406 -0.00472033  
     length 1.45931  
     axis 0 0 0   XYZ
    dof rx ry rz
    limits (-20.0 45.0)
           (-30.0 30.0)
           (-30.0 30.0)
  end
  begin
     id 17 
     name lclavicle
     direction 0.820755 0.555306 -0.134151  
     length 2.66075  
     axis 0 0 0   XYZ
    dof ry rz
    limits (-20.0 10.0)
           (0.0 20.0)
  end
  begin
     id 18 
     name lhumerus
     direction 1 -4.48971e-011 5.24853e-027   
     length 5.0546   
     axis -180 -30 -90   XYZ
    dof rx ry rz
    limits (-60.0 90.0)
           (-90.0 90.0)
           (-90.0 90.0)
  end
  begin
     id 19
     name lradius
     direction 1 -4.48971e-011 2.76575e-028   
     length 3.39013   
     axis -180 -30 -90   XYZ
    dof rx
    limits (-10.0 170.0)
  end
  begin
     id 20
     name lwrist
     direction 1 -4.48939e-011 -2.27826e-027   
     length 1.69507   
     axis 2.17013e-015 90 90   XYZ
    dof ry
    limits (-180.0 0.0)
 end
  begin
     id 21 
     name lhand
     direction 1 -4.49009e-011 -4.55652e-027   
     length 0.572425   
     axis 2.90745e-015 90 90   XYZ
    dof rx rz
    limits (-90.0 90.0)
           (-45.0 45.0)
  end
  begin
     id 22 
     name lfingers
     direction 1 -4.48955e-011 -9.11303e-027   
     length 0.461504   
     axis 5.81489e-015 90 90   XYZ
    dof rx
    limits (0.0 90.0)
  end
  begin
     id 23
     name lthumb
     direction 0.707107 -6.34929e-011 0.707107   
     length 0.66263   
     axis -90 45 2.85299e-015   XYZ
    dof rx rz
    limits (-45.0 45.0)
           (-45.0 45.0)
  end
  begin
     id 24 
     name rclavicle
     direction -0.754477 0.632921 -0.173712   
     length 2.73081  
     axis 0 0 0   XYZ 
    dof ry rz
    limits (-10.0 20.0)
           (-20.0 0.0)
  end
  begin
     id 25 
     name rhumerus
     direction -1 -4.48969e-011 5.1496e-027  
     length 5.0701   
     axis -180 30 90   XYZ
    dof rx ry rz
    limits (-90.0 60.0)
           (-90.0 90.0)
           (-90.0 90.0)
  end
  begin
     id 26 
     name rradius
     direction -1 -4.48967e-011 -7.15624e-028   
     length 3.14957   
     axis -180 30 90   XYZ
    dof rx
    limits (-10.0 170.0)
  end
  begin
     id 27 
     name rwrist
     direction -1 -4.48938e-011 -2.27826e-027   
     length 1.57479   
     axis 2.17013e-015 -90 -90   XYZ
    dof ry
    limits (-180.0 0.0)
  end
  begin
     id 28
     name rhand
     direction -1 -4.49008e-011 -4.55652e-027   
     length 0.718191   
     axis 2.90745e-015 -90 -90   XYZ
    dof rx rz
    limits (-90.0 90.0)
           (-45.0 45.0)
  end
  begin
     id 29
     name rfingers
     direction -1 -4.48953e-011 -9.11303e-027   
     length 0.579024   
     axis 5.81489e-015 -90 -90   XYZ
    dof rx
    limits (0.0 90.0)
  end
  begin
     id 30
     name rthumb
     direction -0.707107 -6.34937e-011 0.707107   
     length 0.831366   
     axis -90 -45 -2.85299e-015   XYZ
    dof rx rz
    limits (-45.0 45.0)
           (-45.0 45.0)
  end
:hierarchy
  begin
    root lhipjoint rhipjoint lowerback
    lhipjoint lfemur
    lfemur ltibia
    ltibia lfoot
    lfoot ltoes
    rhipjoint rfemur
    rfemur rtibia
    rtibia rfoot
    rfoot rtoes
    lowerback upperback
    upperback thorax
    thorax lowerneck lclavicle rclavicle
    lowerneck upperneck
    upperneck head
    lclavicle lhumerus
    lhumerus lradius
    lradius lwrist
    lwrist lhand lthumb
    lhand lfingers
    rclavicle rhumerus
    rhumerus rradius
    rradius rwrist
    rwrist rhand rthumb
    rhand rfingers
  end

#!OML:ASF H:\Male1\Project 1\Capture day 1\Session 1\Male1.ASF
:FULLY-SPECIFIED
:DEGREES
40
root 15.1739 15.3961 3.608 176.168 -28.6153 179.819
lowerback 5.14782 2.18757 -1.2949
upperback 2.31602 2.72711 -1.55897
thorax -0.487943 1.31433 -1.02244
lowerneck -3.90885 3.71112 8.69018
upperneck 5.67793 4.58015 -3.37138
head 2.85314 2.35464 -2.47014
rclavicle 1.73688e-014 1.19271e-014
rhumerus -34.1545 14.8779 -99.3514
rradius 29.5693
rwrist -19.4275
rhand -6.53179 -6.19907
rfingers 7.12502
rthumb 19.3211 -35.2592
lclavicle 1.73688e-014 1.19271e-014
lhumerus -34.2368 -9.63625 91.2057
lradius 29.4933
lwrist 0.834178
lhand -13.5242 7.42322
lfingers 7.12502
lthumb 12.5879 37.024
rfemur -2.19335 18.4903 23.2954
rtibia 23.7571
rfoot -30.1694 -31.1482
rtoes -14.686
lfemur -0.791936 -17.7728 -22.2957
ltibia 23.7008
lfoot -26.271 29.229
ltoes 0.824399
41
root 15.1731 15.3968 3.60864 176.179 -28.6392 179.852
lowerback 5.12794 2.16989 -1.22144
upperback 2.31609 2.70795 -1.56634
thorax -0.473177 1.30549 -1.0691
lowerneck -3.94611 3.72417 8.67087
upperneck 5.70677 4.59294 -3.33487
head 2.8688 2.36173 -2.4531
rclavicle -2.99171e-014 3.18055e-015
rhumerus -34.1575 14.902 -99.3592
rradius 29.5873
rwrist -19.4541
rhand -6.48885 -6.1106
rfingers 7.12502
rthumb 19.3624 -35.1666
lclavicle -2.99171e-014 3.18055e-015
lhumerus -34.2207 -9.62873 91.1809
lradius 29.4569
lwrist 0.905613
lhand -13.3899 7.54203
lfingers 7.12502
lthumb 12.7174 37.1348
rfemur -2.23608 18.4957 23.3085
rtibia 23.7792
rfoot -30.1796 -31.1501
rtoes -14.7182
lfemur -0.817036 -17.7446 -22.2549
ltibia 23.6771
lfoot -26.0733 29.3099
ltoes 0.337082
42
root 15.1725 15.3973 3.60898 176.21 -28.6449 179.839
lowerback 5.12446 2.14362 -1.23307
upperback 2.30588 2.6728 -1.56678
thorax -0.482583 1.28808 -1.06125
lowerneck -3.98834 3.74983 8.67735
upperneck 5.75765 4.62431 -3.35354
head 2.89723 2.37744 -2.4588
rclavicle -4.27387e-015 -1.19271e-014
rhumerus -34.1328 14.9078 -99.3779
rradius 29.527
rwrist -19.4229
rhand -6.48638 -5.95323
rfingers 7.12502
rthumb 19.3647 -35.009
lclavicle -4.27387e-015 -1.19271e-014
lhumerus -34.2079 -9.46356 91.1142
lradius 29.4216
lwrist 0.845447
lhand -13.209 7.52773
lfingers 7.12502
lthumb 12.8918 37.1096
rfemur -2.26475 18.5124 23.2798
rtibia 23.772
rfoot -30.0642 -31.2316
rtoes -15.1344
lfemur -0.853014 -17.7213 -22.2555
ltibia 23.6789
lfoot -26.0707 29.2965
ltoes 0.306756
43
root 15.1725 15.397 3.60878 176.213 -28.6324 179.818
lowerback 5.12442 2.11859 -1.28101
upperback 2.31376 2.63747 -1.54713
thorax -0.4779 1.26995 -1.01225
lowerneck -3.93327 3.75861 8.57454
upperneck 5.72224 4.64825 -3.35386
head 2.87247 2.38701 -2.43938
rclavicle -8.05078e-015 -1.66979e-014
rhumerus -34.1241 14.9936 -99.3981
rradius 29.5075
rwrist -19.4394
rhand -6.55863 -5.99316
rfingers 7.12502
rthumb 19.2953 -35.0559
lclavicle -8.05078e-015 -1.66979e-014
lhumerus -34.2123 -9.35762 91.1016
lradius 29.3982
lwrist 0.915189
lhand -13.039 7.3728
lfingers 7.12502
lthumb 13.0556 36.9442
rfemur -2.24471 18.51 23.264
rtibia 23.7477
rfoot -29.9813 -31.2779
rtoes -15.303
lfemur -0.853123 -17.7365 -22.2768
ltibia 23.6963
lfoot -26.4401 29.0859
ltoes 1.48193
44
root 15.1726 15.3969 3.6087 176.167 -28.6219 179.886
lowerback 5.11705 2.09415 -1.23681
upperback 2.33447 2.60805 -1.51594
thorax -0.452253 1.25542 -1.00258
lowerneck -3.90664 3.76746 8.49048
upperneck 5.71842 4.66657 -3.33221
head 2.86337 2.39499 -2.41593
rclavicle 7.7203e-014 -5.56597e-015
rhumerus -34.0953 15.04 -99.405
rradius 29.497
rwrist -19.4015
rhand -6.58747 -6.02739
rfingers 7.12502
rthumb 19.2675 -35.0929
lclavicle 7.7203e-014 -5.56597e-015
lhumerus -34.207 -9.31657 91.0995
lradius 29.3815
lwrist 1.01145
lhand -12.8448 7.31797
lfingers 7.12502
lthumb 13.2428 36.8773
rfemur -2.22632 18.4878 23.335
rtibia 23.7412
rfoot -29.9414 -31.2976
rtoes -15.2886
lfemur -0.832183 -17.7574 -22.2194
ltibia 23.6956
lfoot -26.6172 28.9591
ltoes 2.0434
45
root 15.1728 15.3976 3.60853 176.15 -28.6136 179.911
lowerback 5.12174 2.08102 -1.23095
upperback 2.33834 2.59134 -1.49464
thorax -0.451762 1.24715 -0.983203
lowerneck -3.93337 3.77395 8.49954
upperneck 5.76173 4.67569 -3.37963
head 2.88592 2.39886 -2.43308
rclavicle -5.26531e-014 3.18055e-015
rhumerus -34.0832 15.0331 -99.4021
rradius 29.4869
rwrist -19.3342
rhand -6.58218 -5.96521
rfingers 7.12502
rthumb 19.2726 -35.0302
lclavicle -5.26531e-014 3.18055e-015
lhumerus -34.1916 -9.24577 91.0841
lradius 29.3649
lwrist 1.03315
lhand -12.5205 7.46971
lfingers 7.12502
lthumb 13.5554 37.0085
rfemur -2.22855 18.4635 23.357
rtibia 23.748
rfoot -29.8964 -31.2893
rtoes -15.3734
lfemur -0.821843 -17.7582 -22.1978
ltibia 23.6858
lfoot -26.5261 29.0045
ltoes 1.58338
46
root 15.1728 15.3976 3.60853 176.168 -28.6101 179.846
lowerback 5.14696 2.10105 -1.27878
upperback 2.33114 2.61426 -1.50982
thorax -0.474445 1.25813 -0.974467
lowerneck -3.91077 3.72348 8.55148
upperneck 5.744 4.61439 -3.48584
head 2.87736 2.36659 -2.48203
rclavicle -5.73991e-015 -4.45278e-014
rhumerus -34.0945 14.931 -99.3726
rradius 29.4915
rwrist -19.2745
rhand -6.57164 -5.95286
rfingers 7.12502
rthumb 19.2828 -35.0169
lclavicle -5.73991e-015 -4.45278e-014
lhumerus -34.2028 -9.28197 91.1088
lradius 29.376
lwrist 1.13603
lhand -12.3863 7.61063
lfingers 7.12502
lthumb 13.6847 37.1407
rfemur -2.22364 18.4427 23.2871
rtibia 23.761
rfoot -29.9422 -31.2011
rtoes -15.3095
lfemur -0.808338 -17.7736 -22.2641
ltibia 23.6772
lfoot -26.6607 28.9565
ltoes 2.14227
47
root 15.1724 15.3963 3.60825 176.2 -28.6288 179.783
lowerback 5.13973 2.10257 -1.31081
upperback 2.32687 2.61355 -1.5503
thorax -0.474341 1.25734 -0.997867
lowerneck -3.86401 3.69716 8.60099
upperneck 5.7167 4.58133 -3.51002
head 2.85973 2.35042 -2.50149
rclavicle -2.78299e-014 -5.56597e-015
rhumerus -34.1107 14.8975 -99.3962
rradius 29.5054
rwrist -19.2761
rhand -6.55468 -6.03443
rfingers 7.12502
rthumb 19.2991 -35.0968
lclavicle -2.78299e-014 -5.56597e-015
lhumerus -34.2161 -9.36213 91.1064
lradius 29.3922
lwrist 1.25608
lhand -12.4739 7.67922
lfingers 7.12502
lthumb 13.6003 37.215
rfemur -2.22994 18.4429 23.2217
rtibia 23.7762
rfoot -30.0212 -31.1467
rtoes -15.2166
lfemur -0.809041 -17.7523 -22.3213
ltibia 23.6676
lfoot -26.3923 29.103
ltoes 1.32355
48
root 15.1729 15.3955 3.60732 176.226 -28.6297 179.769
lowerback 5.10095 2.08024 -1.35224
upperback 2.32604 2.58344 -1.5411
thorax -0.456113 1.24215 -0.962178
lowerneck -3.83168 3.72147 8.56013
upperneck 5.72049 4.61618 -3.46962
head 2.8543 2.3681 -2.47891
rclavicle 7.00964e-014 -3.02153e-014
rhumerus -34.1307 15.0228 -99.4259
rradius 29.518
rwrist -19.348
rhand -6.55044 -6.13524
rfingers 7.12502
rthumb 19.3031 -35.1972
lclavicle 7.00964e-014 -3.02153e-014
lhumerus -34.2219 -9.33809 91.1182
lradius 29.4001
lwrist 1.35828
lhand -12.6171 7.72706
lfingers 7.12502
lthumb 13.4622 37.272
rfemur -2.25322 18.4817 23.2213
rtibia 23.7866
rfoot -30.0801 -31.1785
rtoes -15.0801
lfemur -0.822893 -17.6811 -22.3207
ltibia 23.6623
lfoot -25.891 29.3547
ltoes -0.617607
49
root 15.1733 15.3963 3.60679 176.208 -28.5922 179.846
lowerback 5.0663 2.10011 -1.29271
upperback 2.3263 2.61533 -1.50904
thorax -0.435189 1.25895 -0.962911
lowerneck -3.82369 3.71359 8.5138
upperneck 5.73275 4.60762 -3.44577
head 2.85375 2.36365 -2.46267
rclavicle -2.14936e-014 5.56597e-015
rhumerus -34.1205 14.9921 -99.3932
rradius 29.5191
rwrist -19.3611
rhand -6.52908 -6.2057
rfingers 7.12502
rthumb 19.3237 -35.2656
lclavicle -2.14936e-014 5.56597e-015
lhumerus -34.2521 -9.384 91.1783
lradius 29.4296
lwrist 1.39562
lhand -12.7684 7.69943
lfingers 7.12502
lthumb 13.3165 37.254
rfemur -2.27727 18.5656 23.311
rtibia 23.8002
rfoot -30.1833 -31.2026
rtoes -14.8512
lfemur -0.832145 -17.673 -22.2359
ltibia 23.6562
lfoot -25.985 29.3172
ltoes -0.364575
50
root 15.1729 15.3969 3.60689 176.186 -28.579 179.9
lowerback 5.03408 2.10361 -1.22
upperback 2.34774 2.62388 -1.51921
thorax -0.391418 1.26347 -1.0126
lowerneck -3.84534 3.73346 8.53752
upperneck 5.73721 4.62891 -3.42082
head 2.86078 2.37534 -2.45733
rclavicle -2.4699e-014 -6.36111e-015
rhumerus -34.0777 14.9537 -99.4195
rradius 29.5256
rwrist -19.3448
rhand -6.51544 -6.26181
rfingers 7.12502
rthumb 19.3368 -35.3204
lclavicle -2.4699e-014 -6.36111e-015
lhumerus -34.2574 -9.43771 91.1397
lradius 29.4992
lwrist 1.33283
lhand -12.7562 7.5551
lfingers 7.12502
lthumb 13.3282 37.1089
rfemur -2.2798 18.6236 23.3716
rtibia 23.8093
rfoot -30.2512 -31.2368
rtoes -14.7664
lfemur -0.829213 -17.7329 -22.1897
ltibia 23.6517
lfoot -26.1641 29.2617
ltoes 0.352519
